inDegrees=no
num_controls=7
num_derivatives=13
num_iterations=115
num_multipliers=7
num_parameters=0
num_slacks=7
num_states=26
objective=0.483906
objective_accelerations=0.067154
objective_balance=0.004374
objective_effort=0.052250
objective_height=0.355020
objective_ligament=0.005108
solver_duration=1307.819996
status=Solve_Succeeded
success=true
DataType=double
version=3
OpenSimVersion=4.5
endheader
time	/jointset/ground_pelvis/pelvis_tilt/value	/jointset/ground_pelvis/pelvis_tx/value	/jointset/ground_pelvis/pelvis_ty/value	/jointset/hip_r/hip_flexion_r/value	/jointset/hip_r/hip_adduction_r/value	/jointset/hip_r/hip_rotation_r/value	/jointset/back/lumbar_extension/value	/jointset/patellofemoral_r/patellar_flexion_r/value	/jointset/knee_r/knee_flexion_r/value	/jointset/knee_r/knee_adduction_r/value	/jointset/knee_r/knee_rotation_r/value	/jointset/ankle_r/ankle_angle_r/value	/jointset/subtalar_r/subtalar_angle_r/value	/jointset/ground_pelvis/pelvis_tilt/speed	/jointset/ground_pelvis/pelvis_tx/speed	/jointset/ground_pelvis/pelvis_ty/speed	/jointset/hip_r/hip_flexion_r/speed	/jointset/hip_r/hip_adduction_r/speed	/jointset/hip_r/hip_rotation_r/speed	/jointset/back/lumbar_extension/speed	/jointset/patellofemoral_r/patellar_flexion_r/speed	/jointset/knee_r/knee_flexion_r/speed	/jointset/knee_r/knee_adduction_r/speed	/jointset/knee_r/knee_rotation_r/speed	/jointset/ankle_r/ankle_angle_r/speed	/jointset/subtalar_r/subtalar_angle_r/speed	/forceset/tau_hip_flexion_r	/forceset/tau_hip_adduction_r	/forceset/tau_hip_rotation_r	/forceset/tau_knee_flexion_r	/forceset/tau_ankle_angle_r	/forceset/tau_subtalar_angle_r	/forceset/tau_lumbar_extension	lambda_cid13_p0	lambda_cid14_p0	lambda_cid14_p1	lambda_cid14_p2	lambda_cid14_p3	lambda_cid14_p4	lambda_cid14_p5	/jointset/ground_pelvis/pelvis_tilt/accel	/jointset/ground_pelvis/pelvis_tx/accel	/jointset/ground_pelvis/pelvis_ty/accel	/jointset/hip_r/hip_flexion_r/accel	/jointset/hip_r/hip_adduction_r/accel	/jointset/hip_r/hip_rotation_r/accel	/jointset/back/lumbar_extension/accel	/jointset/patellofemoral_r/patellar_flexion_r/accel	/jointset/knee_r/knee_flexion_r/accel	/jointset/knee_r/knee_adduction_r/accel	/jointset/knee_r/knee_rotation_r/accel	/jointset/ankle_r/ankle_angle_r/accel	/jointset/subtalar_r/subtalar_angle_r/accel	gamma_cid13_p0	gamma_cid14_p0	gamma_cid14_p1	gamma_cid14_p2	gamma_cid14_p3	gamma_cid14_p4	gamma_cid14_p5
0.5	-0.228387124239232	-0.009665895471263293	0.7709926011149262	1.126285376175093	-0.2233974254516419	-0.1041402538214443	-0.3497016652770356	1.01370836809179	1.013708368091836	-0.03792108616985741	0.1744989468332196	0.3034590739201101	0.07762230886533739	-0.5695733419284819	-0.1907937234354084	-0.7206039759217813	2.576560701241053	-0.01255892747559323	0.2251204393071772	-0.5771392124612547	2.526754823168696	2.526754823168544	-0.4799459678137847	0.000308225920276763	0.6346180771735285	0.1831582179638184	-0.1621744885492553	-0.01574546009060286	0.01232243879680941	-0.381627697071826	0.1016473450085787	-0.00058602716333372	0.1944273709323436	-11.19010482847647	-7.696618821920222	-0.1781753378434177	-1.138128831728736	-4.360303618574435	-648.9290152537852	60.17038613798911	0.7302452191582484	0.7666850966468408	-0.7069408105962733	-1.49716761483527	-0.2464131647807847	-0.9026643316456044	1.969161775548044	-1.75306997179989	-1.753069971799881	0.408227171838866	-0.0251357957591365	-1.220251373179603	-0.5397971390605353	-2.823584284645191e-07	-3.348959478110564e-07	1.635838391808171e-06	-2.422423365809182e-06	1.945922026877098e-08	-4.354821877035761e-07	7.227984201977774e-07
0.51	-0.2340448217268775	-0.01153527237860731	0.7637530229765559	1.151971908214081	-0.2235365779523977	-0.1019329482676702	-0.3553746209277304	1.038884661051194	1.03888466105122	-0.04269665114184176	0.1745022032783798	0.3097426932659227	0.07942437357101532	-0.5618709333975571	-0.1830641564940333	-0.7271372765777661	2.560412448085617	-0.01525825254829297	0.2163684926327202	-0.5573924184133759	2.508165405388237	2.508165405388199	-0.4751459761956831	0.0003340634221394784	0.6219997887025283	0.1772107139137357	-0.170410772154808	-0.01394914098599405	0.01229669222701405	-0.3871485373206803	0.09939568830544888	4.570238376036744e-05	0.20176585853796	-9.510313714455233	-8.823498171897155	-0.3061123722805459	-0.8835847615832358	-3.876672258697186	-656.4289932123994	60.19586990663787	0.8044828557493683	0.7787263537221911	-0.6004559619211561	-1.723690996472171	-0.2799779480671548	-0.8577706944511679	1.986363109053064	-1.962574246465687	-1.96257424644874	0.5192690334106811	0.01460184349446693	-1.298569328989376	-0.6288941955651827	-3.057260576905831e-07	-3.776628191711425e-07	1.582716891628627e-06	-2.73489035928644e-06	4.659520409058153e-08	-4.453776992550732e-07	5.793390321284861e-07
0.52	-0.2396226462920759	-0.01332682684436969	0.7564533255778616	1.177486950355399	-0.2237023808577908	-0.09981242435246222	-0.3608483236600173	1.063864920519733	1.063864920519743	-0.04742353942232251	0.1745053497626282	0.3158969393780395	0.08116562980467584	-0.5535987574390412	-0.175229235119083	-0.7326278279866129	2.542262721707203	-0.0178890084030956	0.2077641115940456	-0.5372886287796858	2.487548124995905	2.487548124995979	-0.4702106295129866	0.0002862337374217642	0.6087434304343619	0.1709965235603315	-0.1786470557603604	-0.01215282188138689	0.012270945657249	-0.392669377569533	0.09714403160231846	0.0006774319308512728	0.2091043461435766	-7.883288751819146	-9.949162856200621	-0.4255977636824707	-0.6398008570514987	-3.424314988361933	-663.9120562237184	60.32097360135237	0.8441987046764551	0.7877559833619071	-0.498390961168675	-1.897462259430777	-0.2326993212013657	-0.8731512044891455	2.040560892710359	-2.158642494174649	-2.15864249417464	0.4352981847578203	-0.03986923307520079	-1.347865332612858	-0.5931343997248396	-3.381732563160335e-07	-4.169577973748837e-07	1.692189131980041e-06	-2.997207399760604e-06	5.355675862261675e-08	-4.60839307877431e-07	5.070226929358384e-07
0.53	-0.245114980819977	-0.01503959518389909	0.7491040189348098	1.202810539457055	-0.2238944237931974	-0.09777697745679362	-0.3661195030893372	1.088628960374031	1.088628960374082	-0.05209964378893342	0.1745081923158181	0.3219154363746384	0.08284294993286848	-0.5447837014545375	-0.1673145431837337	-0.7370534171731734	2.522132144800889	-0.02050345542216746	0.1993476246204164	-0.5169087608201146	2.464934268698556	2.464934268698672	-0.4649917267040906	0.0002809909748367438	0.5948638150722366	0.1644294357949282	-0.1866343133767833	-0.01079376484687775	0.01230260998600464	-0.3987479822122628	0.09523533837263394	0.001188350497564764	0.2162071095777152	-6.408961757406649	-10.98790933887506	-0.5785716164187493	-0.3949719356616546	-2.959215760252289	-671.5958659582595	60.48475107368667	0.912776522128839	0.7948206817632988	-0.3877241719257708	-2.119357708381145	-0.2737476643560673	-0.8231260542214104	2.042474187202868	-2.361522729021697	-2.361522729015511	0.5682498515906016	0.01835791558616401	-1.421896091557175	-0.6942990332651264	-3.401275372088626e-07	-4.164195071562457e-07	1.677623502219803e-06	-2.997137642800052e-06	4.944681643941543e-08	-4.462737362277564e-07	4.216481211919743e-07
